# xmcd
#
# Track frame offsets: 
#        150
#        19450
#        38230
#        48015
#        67147
#        72200
#        98027
#        108915
#        122002
#        139740
#        185897
#        204347
#        221482
#        224655
#
# Disc length: 3389 seconds
#
# Revision: 0
# Processed by: cddbd v1.5.2PL0 Copyright (c) Steve Scherf et al.
# Submitted via: ExactAudioCopy v0.99pb1
#
DISCID=d90d3b0e
DTITLE=New Grass Heads - Lost Episodes
DYEAR=1996
DGENRE=Blues
TTITLE0=Minister's Daughter's Blues
TTITLE1=Scoolbus
TTITLE2=Bongwater Stomp
TTITLE3=Find Your Way Down
TTITLE4=Catfish #1
TTITLE5=Lost Episodes
TTITLE6=Kettled
TTITLE7=Chains
TTITLE8=One More Taste of Wine
TTITLE9=Dream Horse Road
TTITLE10=Workin
TTITLE11=Ace of Spades
TTITLE12=Catfish #2
TTITLE13=Mercury
EXTD=
EXTT0=
EXTT1=
EXTT2=
EXTT3=
EXTT4=
EXTT5=
EXTT6=
EXTT7=
EXTT8=
EXTT9=
EXTT10=
EXTT11=
EXTT12=
EXTT13=
PLAYORDER=
